<?xml version="1.0" encoding="utf-8"?>
<!-- Generator: Adobe Illustrator 23.0.3, SVG Export Plug-In . SVG Version: 6.00 Build 0)  -->
<svg version="1.1" id="Content" xmlns="http://www.w3.org/2000/svg" xmlns:xlink="http://www.w3.org/1999/xlink" x="0px" y="0px"
	 viewBox="0 0 884.25 987.06" style="enable-background:new 0 0 884.25 987.06;" xml:space="preserve">
<style type="text/css">
	.st0{fill:#EA0029;}
</style>
<g id="Atoms">
	<path id="Right_Atom" class="st0" d="M87.39,213.1c-24.66-9.54-53.26,0.04-66.91,23.64c-15.08,26.11-6.12,59.49,19.97,74.57
		c26.11,15.08,59.49,6.12,74.57-19.97c7.48-12.96,9.05-27.73,5.52-41.15c81.79-34.37,249.9,3.28,418.38,100.56
		c206.2,119.05,334.85,282.29,287.33,364.59s-253.2,52.52-459.4-66.54c-144.83-83.63-251.4-189.05-285.52-272.91
		c-15.56,4.03-32.82,3.77-49.7-1.34c33.56,101.93,148.89,224.92,310.02,317.95c230.09,132.85,466.44,154.26,527.9,47.81
		C931,633.86,794.28,439.87,564.19,307.03C376.76,198.83,185.22,164.57,87.39,213.1z"/>
	<path id="Middle_Atom" class="st0" d="M507.62,46.11C503.55,19.99,480.97,0,453.69,0c-30.14,0-54.58,24.44-54.58,54.58
		s24.44,54.58,54.58,54.58c14.97,0,28.54-6.03,38.39-15.8c70.67,53.64,122.12,218.06,122.12,412.61
		c0,238.1-77.04,431.13-172.08,431.13S270.04,744.09,270.04,505.98c0-167.25,38.02-312.25,93.58-383.74
		c-11.28-11.46-19.69-26.54-23.69-43.72c-71.49,80.04-120.34,241.41-120.34,427.46c0,265.69,99.64,481.07,222.55,481.07
		s222.55-215.38,222.55-481.07C664.66,289.57,598.55,106.57,507.62,46.11z"/>
	<path id="Left_Atom" class="st0" d="M862.34,326.54c20.59-16.59,26.61-46.15,12.98-69.77c-15.08-26.11-48.46-35.05-74.57-19.97
		c-26.11,15.08-35.05,48.46-19.97,74.57c7.48,12.96,19.49,21.7,32.87,25.35c-11.12,88.02-127.78,214.78-296.28,312.05
		c-206.2,119.05-411.88,148.84-459.4,66.54s81.12-245.54,287.33-364.59C490.13,267.1,634.71,227.53,724.4,239.9
		c4.28-15.5,13.15-30.31,26.02-42.38c-105.05-21.89-269.23,16.49-430.36,109.5C89.97,439.87-46.74,633.86,14.71,740.29
		s297.8,85.04,527.9-47.81C730.01,584.29,855.45,435.53,862.34,326.54z"/>
</g>
</svg>
