<svg xmlns="http://www.w3.org/2000/svg" viewBox="0 0 677.33 756.09"><defs><style>.a{fill:#ea0029;}.b{fill:#0033a1;}</style></defs><title>MFS Logo - Without Text</title><path class="a" d="M436.94,493.85a41.81,41.81,0,1,0,25.41,28.4c62.65-26.33,191.42,2.52,320.48,77,157.95,91.19,256.48,216.23,220.09,279.27S809,918.78,651,827.58c-110.95-64.05-192.58-144.8-218.72-209a70.57,70.57,0,0,1-38.08-1c25.71,78.08,114,172.29,237.47,243.55C807.94,962.82,989,979.22,1036.06,897.68S978.41,667.56,802.16,565.8C658.6,482.92,511.88,456.68,436.94,493.85Z" transform="translate(-370 -330.62)"/><path class="a" d="M758.84,365.94a41.83,41.83,0,1,0-11.9,36.2c54.12,41.1,93.53,167,93.53,316.06,0,182.39-59,330.24-131.81,330.24S576.85,900.59,576.85,718.2c0-128.11,29.12-239.18,71.68-293.94a70.53,70.53,0,0,1-18.15-33.49c-54.76,61.31-92.19,184.92-92.19,327.43,0,203.52,76.33,368.51,170.47,368.51s170.47-165,170.47-368.51C879.13,552.43,828.49,412.25,758.84,365.94Z" transform="translate(-370 -330.62)"/><path class="a" d="M1030.55,580.75a41.82,41.82,0,1,0-37.3,7.8c-8.52,67.42-97.88,164.52-227,239-157.94,91.2-315.49,114-351.89,51s62.13-188.08,220.08-279.27c111-64.06,221.7-94.37,290.4-84.9a70.52,70.52,0,0,1,19.93-32.46c-80.47-16.77-206.24,12.63-329.65,83.88-176.26,101.76-281,250.35-233.9,331.88s228.11,65.14,404.36-36.62C929.19,778.18,1025.27,664.23,1030.55,580.75Z" transform="translate(-370 -330.62)"/><path class="b" d="M732.51,746.54a8.88,8.88,0,0,1,.24-2.33c.1-.2,44.63-13.36,44.63-13.36s-45.86,3.79-46.47,3.46l-.77-1.56c-.71-1.4-.81-2.1-.34-2.57C730,730,754,693.45,754,693.45s-31.42,31.14-32,31.14a2,2,0,0,1-1.05-.3c-.22-.16-2.25-.79-2.51-1-.08-.07-5.33-45-5.33-45l-4.15,45-1.39.46a9.47,9.47,0,0,0-1.67.69c-.42.34-33.67-31-33.67-31s26.14,37.92,25.78,38.09a4.08,4.08,0,0,0-.67,1.07l-.53,1s-19.41-1-19.66-1.19a15.82,15.82,0,0,1-.28-2.92,44.9,44.9,0,0,0-.77-7.13c-.1-.5-.34-1.64-.54-2.53s-.47-2-.61-2.49-5.45-21.32-5.65-22.21-1.15-5.69-1.32-7.29c-.1-.89-.26-2.24-.36-3a11.13,11.13,0,0,1,.89-6.08c1.44-3.13,1.48-5.71.1-11.11-.1-.43-1.62-3.91-2.13-4.94a45.15,45.15,0,0,0-2.22-3.95,15.83,15.83,0,0,1-1.5-2.85,4.56,4.56,0,0,1,3.16-5.19,19,19,0,0,0,3.91-1.94.74.74,0,0,1,.46-.29c.39,0,2.61-2.3,3-3.07,1.07-2.21,1-3.81-.1-6.48a3,3,0,0,0-.53-.87c-.3-.18-.24-1.36.1-1.8a5.55,5.55,0,0,0,0-3.77,6,6,0,0,0-3.08-1.84c-.4-.08-1.09-.25-1.54-.37a14.79,14.79,0,0,0-2.77-.22c-1.84,0-2,0-2-.4a1,1,0,0,1,.3-.65c.18-.14.83-.77,1.48-1.4,4.43-4.33,6.94-8.12,8.14-12.33a23.49,23.49,0,0,0,.12-6.58,9.39,9.39,0,0,0-.93-2.77,24.87,24.87,0,0,0-4.29-5.47,13.11,13.11,0,0,0-2.33-2c-.23,0-.27.08-.12.26a5.58,5.58,0,0,1,.48,2.95,4.72,4.72,0,0,1-.85,1.83c-.44.75-2.1,2-4.25,3.12a22.82,22.82,0,0,0-3.32,2c-.13.09-3.78,3.33-4.76,4.33a13.16,13.16,0,0,0-2.25,4.23c-.54,1.48-.58,1.85-.58,4.36a12.52,12.52,0,0,0,.91,5.6c.14.35.36.94.5,1.32a4.33,4.33,0,0,0,.57,1.05,1.06,1.06,0,0,1,.2.71c-.06.31-.34.39-2,.49a7.6,7.6,0,0,0-4.25,1.23c-1.32.75-3.69,3.18-4,4a9.79,9.79,0,0,0-1,2.84,3.93,3.93,0,0,1-.39,1.41,7.09,7.09,0,0,0-.46,5.33c.68,1.42,2.28,2.61,5.14,3.85a5.51,5.51,0,0,1,1.88,2s.49.81,1.07,1.7,1.18,1.76,1.32,2c.83,1.27.93,1.66.69,2.73-.14.57-.35,2.83-.47,3.16-.87,2.28-.87,12,0,13.78,1.32,2.72,1.5,3,2.21,3.49a8,8,0,0,1,1.07.79c.37.34.79,4.51.57,5.5-.51,2.17-.3,16.3.34,24.38.55,6.82.71,8.5.92,9.09a6,6,0,0,1,.2,1.62,8.42,8.42,0,0,0,.2,1.74,18.91,18.91,0,0,1,.41,2.13,71.16,71.16,0,0,0,1.72,7.79c.2.67-7.5-.26-7.5-.26s8.31,2.35,8.67,2.67c.79.63,1.38,4.8,1.5,10.19.1,4.82-.12,6.64-.85,7.39a21.25,21.25,0,0,0-3.54,6.64c-.09.34-.27.89-.39,1.21a31.77,31.77,0,0,0-1,10.23c.1.95.2,2.2.2,2.81a23.46,23.46,0,0,0,.85,4.88c.12.51.26,1.2.3,1.52a7.16,7.16,0,0,0,.39,1.25,3.15,3.15,0,0,1,.28,1,2.36,2.36,0,0,0,1,1.78,5.41,5.41,0,0,1,2.36,2.89,7.86,7.86,0,0,1,.45,3.16c0,2.11-.22,2.86-1.13,3.71-.27.24-.63.93-.79,1.07-.41.34-.41,2,0,2.15a1,1,0,0,0,.81-.21c.68-.44,1.19-.4,2.1.19a6.58,6.58,0,0,1,2.41,3,7.81,7.81,0,0,1,.57,6.38,28,28,0,0,0-.93,3.85c-.13.6-.33,1.39-.43,1.72a60.74,60.74,0,0,0-.36,8.33h93.55l-.12-2.3a79.63,79.63,0,0,0-.7-8.76c-.15-.61-.39-1.81-.57-2.64a25.52,25.52,0,0,0-1.07-3.74,33.75,33.75,0,0,0-2.21-4.36,11.36,11.36,0,0,0-7.71-5.16c-1.34-.14-2.23-.5-2.23-.95,0-.14-1.56-3-2.37-4.31-.14-.23-.34-.59-.47-.81s-.38-.67-.6-1a8,8,0,0,1-.55-.92c-.08-.16-.49-.87-.91-1.57a10.58,10.58,0,0,1-.77-1.38,10.94,10.94,0,0,0-.95-1.34c-1.72-2.16-1.87-2.51-1.89-4.31a10.17,10.17,0,0,1,1.16-4.76c.55-1.19.55-1.62,0-3.85-.18-.72-.41-1.9-.51-2.63s-.28-2-.42-2.85c-.29-1.66-.19-2.21.36-2.21l34.95,15.13S735.79,750.91,735,750.33C732.23,748.46,732.45,748.81,732.51,746.54Zm-39.46,13.14a17,17,0,0,1-2.84,4.15,3.42,3.42,0,0,1-1.19.57c-.49.1-.71,0-1.13-.45-.59-.63-.71-1-.77-2.29,0-.83,0-.91.77-1.35.44-.27,4-1.81,5-2.31a.42.42,0,0,1,.58.12C693.68,758.36,693.6,758.65,693.05,759.68Zm1.11-14.48c-.18,1.91-.36,2.25-1.68,3.22-.63.47-5.93,4.31-6.07,4.31s-1-1.47-1-2a13.4,13.4,0,0,0-.79-2.53c-.55-1.28-2.54-5.22-2.74-5.43s-.61-.83-1.09-1.52c-1.09-1.57-1-1.94.3-1.74.53.08,11.3,3,12,3.24a3.4,3.4,0,0,0,.83.29C694.18,743,694.3,743.79,694.16,745.2Z" transform="translate(-370 -330.62)"/></svg>