<?xml version="1.0" encoding="utf-8"?>
<!-- Generator: Adobe Illustrator 23.0.3, SVG Export Plug-In . SVG Version: 6.00 Build 0)  -->
<svg version="1.1" id="Layer_1" xmlns="http://www.w3.org/2000/svg" xmlns:xlink="http://www.w3.org/1999/xlink" x="0px" y="0px"
	 viewBox="0 0 1417.3 1417.3" style="enable-background:new 0 0 1417.3 1417.3;" xml:space="preserve">
<style type="text/css">
	.st0{fill:#FFCD00;}
	.st1{fill:#0033A1;}
	.st2{fill:#EA0029;}
</style>
<title>MFS Logo</title>
<g>
	<path class="st0" d="M708.7,198.4c280.6,0.5,507.6,228.4,507,509s-228.4,507.6-509,507s-507.6-228.4-507-509
		c0.4-203.9,122.6-387.8,310.4-467C572.9,211.9,640.5,198.3,708.7,198.4 M708.7,0C317.3,0,0,317.3,0,708.7s317.3,708.7,708.7,708.7
		s708.7-317.3,708.7-708.7S1100,0,708.7,0z"/>
</g>
<g>
	<path class="st1" d="M186.1,502.4l-83.7-61.4l16.2-30.5l42.2,10.2c3.9,1,7.7,2.2,11.4,3.7l0.4-0.7c-3.5-2-6.7-4.4-9.6-7.2l-32-29.3
		l16-30.2l97.8,34.9l-15.2,28.5L187,402.5c-3.3-1.4-5.4-2.3-9.2-4.3l-0.3,0.5c2.1,1.6,5.3,4.2,6.8,5.6l35.6,34.5l-9.2,17.4
		l-45.5-10.2c-3.7-0.8-7.3-2-10.8-3.7l-0.5,0.9c1.8,0.9,5.3,2.8,7,3.9l40.4,26.7L186.1,502.4z"/>
</g>
<g>
	<path class="st1" d="M258.9,356.6l8.3,10l-22.5,27.5l-59.1-89.9l23.6-28.7l100.3,39.7l-22.6,27.5l-11.8-5.8L258.9,356.6z
		 M224.6,310.9l-0.8,1c2.9,2.6,5.6,5.4,8,8.5l12.3,16l8.5-10.4l-18-9.2C231.1,314.9,227.7,312.9,224.6,310.9z"/>
</g>
<g>
	<path class="st1" d="M311.9,314l-67.5-77.4l31.5-27.4c7.3-6.4,15.8-12.1,28.3-10.6c7,0.9,15.2,4.1,23.2,13.3
		c6,6.9,7.8,12.8,8.2,17.2c0.4,5.2-1.1,10.4-4.2,14.5l0.6,0.7c2.3-0.4,4.6-0.3,6.8,0.4l38.4,12.5L348,282.6l-29.8-13.9
		c-1.1-0.4-2.1-1-3.1-1.6l-0.2,0.6l21.6,24.9L311.9,314z M299.1,249.6l2.9-2.6c1.5-1.3,3.5-3.5,3.8-6.4c0.1-2.3-0.8-4.6-2.4-6.3
		c-1.4-1.7-3.3-2.9-5.4-3.5c-2.2-0.5-4.5,0.2-6.1,1.6l-4.4,3.8L299.1,249.6z"/>
</g>
<g>
	<path class="st1" d="M437.5,217.3c-5.4,7.8-13.8,13.7-17.4,16c-10.9,7-24.3,9.1-36.8,5.7c-12.5-3.4-23.9-12.5-31.7-24.7
		c-8.5-13.4-11.3-27.7-9.3-40.3c2-13.2,9.7-24.9,21.1-31.9c6.4-4,13.4-6.9,20.7-8.5l21.8,32.5c-5.6-1.6-14.8-2.6-21.9,1.9
		c-4.4,2.8-7.3,7.4-8,12.6c-0.5,5.3,0.9,10.5,3.8,14.9c2.8,4.6,7.3,8.1,12.5,9.6c5,1.3,10.4,0.4,14.7-2.4c8-5.1,10-13.9,10.6-18.2
		L437.5,217.3z"/>
</g>
<g>
	<path class="st1" d="M445.8,214.3l-41.2-94.1l29.6-13l14,31.9l18.8-8.2L453,99l29.6-13l41.2,94.1l-29.6,13l-14.3-32.7l-18.8,8.2
		l14.3,32.7L445.8,214.3z"/>
</g>
<g>
	<path class="st1" d="M562.6,169.1L540.9,68.7l60.3-13l6.2,28.6l-27.5,5.9l2.2,10.2l24.1-5.2l5.7,26.5l-24.1,5.2l7.6,35.1
		L562.6,169.1z"/>
</g>
<g>
	<path class="st1" d="M714.1,135.1c-7.4,9.4-19.8,17.6-37.4,18.6s-30.9-5.8-39.3-14.3c-7.7-7.7-14-20-15-36.5
		c-0.9-16.3,4-29.2,10.8-37.8c7.4-9.4,19.8-17.6,37.4-18.6s30.9,5.8,39.3,14.3c7.7,7.7,14,20,15,36.3
		C725.8,113.6,720.8,126.5,714.1,135.1z M660.8,85.5c-3.1,4-4.7,10.1-4.4,15.7c0.3,5.8,2.6,11.4,6.1,14.9c6.6,6.3,17,6.1,23.3-0.5
		c0.3-0.3,0.5-0.6,0.8-0.8c2.8-3.6,4.8-9.1,4.4-15.5s-2.6-11.7-6.1-15.1c-3.3-3.2-7.8-4.9-12.3-4.5
		C667.9,79.7,663.6,81.9,660.8,85.5z"/>
</g>
<g>
	<path class="st1" d="M735.2,149.7l12-102l41.4,4.9c9.6,1.1,19.5,3.5,26.8,13.9c4.1,5.8,7.1,14,5.7,26.1c-1.1,9-4.2,14.4-7.2,17.6
		c-3.6,3.8-8.4,6.1-13.6,6.6l-0.1,0.9c1.9,1.4,3.3,3.2,4.3,5.3l16.5,36.8l-38.4-4.5l-9.6-31.4c-0.4-1.1-0.7-2.2-0.9-3.4l-0.6,0.2
		l-3.9,32.7L735.2,149.7z M774.3,97l3.8,0.5c1.9,0.2,5,0.3,7.3-1.5c1.8-1.5,2.9-3.7,3.1-6c0.3-2.2,0-4.4-1.1-6.3
		c-1.1-1.9-3.1-3.2-5.3-3.4l-5.8-0.7L774.3,97z"/>
</g>
<g>
	<path class="st1" d="M932,120.9c-2.8-4.2-8.3-10.9-15.4-13.3c-1.7-0.6-4.4-1.2-6.6-0.3c-1.4,0.5-2.4,1.6-2.8,3c-0.7,2-1,4,3.4,6.8
		l9.3,5.9c7.1,4.5,10.6,9.5,12.2,13.3c3.5,7.8,2.2,15.7,0.3,21.5c-2.8,8.3-7.3,15.4-15.5,20.3c-6.9,4-18.6,7.6-35,2.1
		c-13.4-4.5-20.9-11.7-27.3-17.6l-2.5-2.3l18.8-24.3l2.4,4.1c2.4,3.9,7.6,10.5,15.4,13.1c4.3,1.4,6.6,0.9,7.4,0.5
		c1.6-0.7,2.7-2.1,3.2-3.8c0.5-1.2,0.5-2.5,0.1-3.7c-0.7-1.5-2.2-2.5-5.3-4.4l-7.2-4.2c-4.7-2.7-9.5-6.2-12.5-13.4
		c-2.8-6.6-2.7-13.1-0.3-20.1c3-9,8.4-15.9,16.3-20.4c9.2-5.4,20.8-7,34.7-2.4c7,2.3,15.6,6.7,23.9,17.4L932,120.9z"/>
</g>
<g>
	<path class="st1" d="M989.2,222.6c-9.5-0.6-18.8-4.7-22.7-6.6c-11.6-5.7-20.3-16.1-23.9-28.6c-3.6-12.4-1.6-26.9,4.8-39.9
		c7.1-14.2,17.9-23.9,29.8-28.7c12.4-5.1,26.3-4.5,38.2,1.6c6.7,3.4,12.8,7.9,17.9,13.4l-16.6,35.4c-1.5-5.6-5.4-14-13-17.8
		c-4.6-2.3-10.1-2.5-14.8-0.3c-4.8,2.3-8.6,6.2-10.9,10.9c-2.5,4.8-3.2,10.4-1.7,15.6c1.4,5,5,9.1,9.7,11.4
		c8.4,4.2,17.1,1.4,21.1-0.3L989.2,222.6z"/>
</g>
<g>
	<path class="st1" d="M996.3,229.9l55.6-86.4l28.2,18.1l-55.6,86.4L996.3,229.9z"/>
</g>
<g>
	<path class="st1" d="M1035.6,255.2l64.4-80l48.6,39.1l-17.7,21.9l-22.4-18.1l-6,7.4l20.4,16.4l-16.9,21l-20.4-16.4l-6.2,7.7
		l23.1,18.6l-17.7,22L1035.6,255.2z"/>
</g>
<g>
	<path class="st1" d="M1091.1,299.5l76.1-69l21.5,23.7l-14.3,42c-2,6.4-4.5,12.7-7.6,18.7l0.7,0.7c4.8-6.6,10.2-12.8,16.1-18.5
		l24.2-21.9l21.6,23.8l-76.1,69l-21.6-23.8l14.5-44.3c1.6-4.7,3.5-9.2,5.6-13.7l-0.7-0.7c-3.9,5-8.1,9.8-12.6,14.3l-25.9,23.5
		L1091.1,299.5z"/>
</g>
<g>
	<path class="st1" d="M1197.5,433c-7.9-5.3-13.8-13.6-16.2-17.2c-7.1-10.8-9.3-24.2-6.1-36.7c3.2-12.5,12.3-24,24.4-31.9
		c13.3-8.6,27.6-11.5,40.2-9.6c13.2,1.9,25,9.5,32.1,20.8c4.1,6.3,7,13.3,8.7,20.6l-32.3,22.1c1.5-5.6,2.5-14.8-2.1-21.9
		c-2.8-4.4-7.5-7.2-12.6-7.8c-5.3-0.4-10.5,0.9-14.9,3.9c-4.6,2.9-8,7.4-9.4,12.6c-1.3,5-0.3,10.4,2.6,14.7
		c5.1,7.9,14,9.9,18.3,10.4L1197.5,433z"/>
</g>
<g>
	<path class="st1" d="M1200.1,442.1l92.7-44.1l26.8,56.3l-25.4,12.1l-12.4-26l-8.6,4.1l11.3,23.6l-24.3,11.6l-11.3-23.6l-8.9,4.2
		l12.8,26.8l-25.4,12.1L1200.1,442.1z"/>
</g>
<g>
	<path class="st1" d="M189.2,1121.9l75.7-69.4l21.6,23.6l-14.1,42.1c-1.9,6.4-4.5,12.7-7.5,18.7l0.6,0.7c4.8-6.7,10.1-12.9,16-18.6
		l24-22l21.7,23.7l-75.7,69.4l-21.7-23.7l14.3-44.3c1.6-4.7,3.5-9.3,5.6-13.8l-0.7-0.7c-3.9,5.1-8.1,9.8-12.6,14.3l-25.8,23.6
		L189.2,1121.9z"/>
</g>
<g>
	<path class="st1" d="M276.3,1211.1l63.5-80.7l49,38.6l-17.4,22.1l-22.7-17.8l-5.9,7.5l20.6,16.2l-16.7,21.2l-20.6-16.2l-6.1,7.8
		l23.3,18.4l-17.4,22.1L276.3,1211.1z"/>
</g>
<g>
	<path class="st1" d="M391.4,1175.2l31,15.7l-13,48c-1,4.2-2.4,8.2-4.3,12l0.7,0.4c2.8-5.1,6.2-9.9,9.9-14.3l28.9-34.7l23,11.6
		l-11.6,46.6c-1.3,4.7-2.9,9.3-4.8,13.8l0.6,0.3c2.6-4.9,5.7-9.5,9.3-13.8l28.9-35.7l31.2,15.8l-75.5,76.9l-26.1-13.2l11.1-41.3
		c1.3-4.5,2.8-9,4.7-13.3l-1-0.5c-2.3,4.1-4.8,8.1-7.6,11.9l-27.5,33.1l-25.4-12.9L391.4,1175.2z"/>
</g>
<g>
	<path class="st1" d="M542.1,1245.1l37.1,8.1l3.7,20c0.5,2.8,0.7,5.7,0.7,8.5l1,0.2c1.6-4.1,2.9-5.4,4.2-7.4l11-16.8l37,8
		l-43.3,50.5l-9.4,43.2l-32.4-7l9.4-43.2L542.1,1245.1z"/>
</g>
<g>
	<path class="st1" d="M712.2,1357.8c-8.4,8.5-21.6,15.3-39.2,14.4s-30-9.2-37.5-18.5c-6.8-8.5-11.8-21.4-10.9-37.9
		c0.9-16.3,7.2-28.6,14.8-36.4c8.4-8.5,21.6-15.3,39.2-14.4s30,9.2,37.5,18.5c6.8,8.5,11.8,21.4,10.9,37.7
		C726.1,1337.7,719.8,1350,712.2,1357.8z M664.6,1302.7c-3.5,3.7-5.8,9.6-6.1,15.1c-0.3,5.8,1.3,11.6,4.5,15.5
		c5.9,7,16.3,7.9,23.2,2c0.3-0.2,0.6-0.5,0.8-0.7c3.2-3.2,5.7-8.5,6.1-15s-1.3-11.9-4.4-15.7c-2.9-3.6-7.2-5.7-11.8-5.9
		C672.3,1297.6,667.7,1299.3,664.6,1302.7L664.6,1302.7z"/>
</g>
<g>
	<path class="st1" d="M748.7,1370.8l-12.2-102l41.4-5c9.6-1.2,19.8-1.2,29.3,7.2c5.3,4.6,10.2,12,11.7,24c1.1,9-0.7,15-2.9,18.8
		c-2.6,4.5-6.8,7.9-11.7,9.6l0.1,0.9c2.1,0.9,4,2.3,5.4,4.2l24.8,31.9l-38.4,4.6l-16.8-28.2c-0.6-1-1.2-2-1.6-3.1l-0.5,0.4l3.9,32.7
		L748.7,1370.8z M774.3,1310.3l3.8-0.5c1.9-0.2,4.9-0.9,6.7-3.1c1.4-1.9,2-4.2,1.6-6.6c-0.2-2.2-1.1-4.3-2.5-5.9
		c-1.6-1.6-3.8-2.4-6-2.1l-5.8,0.7L774.3,1310.3z"/>
</g>
<g>
	<path class="st1" d="M854.9,1356l-28.9-98.6l30.9-9l9,30.6c1.3,4.1,2.3,8.3,3,12.6l0.7-0.2c0.1-4.2,0.6-8.3,1.4-12.4l5.9-36.4
		l34.8-10.2l-13.5,56.4l45.3,41.2l-37.2,10.9l-25.5-26.9c-2.5-2.6-4.8-5.4-7-8.2l-0.7,0.2c1.4,2.9,2.5,6,3.4,9.1l9.3,31.8
		L854.9,1356z"/>
</g>
<g>
	<path class="st1" d="M1039.5,1281.3c-6.1,7.3-15,12.3-18.9,14.3c-11.5,5.9-25,6.7-37.2,2.2c-12.1-4.5-22.6-14.7-29.2-27.6
		c-7.2-14.1-8.5-28.7-5.4-41c3.3-12.9,12-23.8,24-29.7c6.7-3.4,14-5.6,21.5-6.4l18.6,34.4c-5.4-2.1-14.5-4-22-0.2
		c-4.6,2.4-8,6.7-9.1,11.7c-1,5.2-0.2,10.6,2.3,15.2c2.4,4.9,6.5,8.7,11.5,10.7c4.9,1.8,10.3,1.5,14.9-1
		c8.4-4.3,11.3-12.9,12.3-17.2L1039.5,1281.3z"/>
</g>
<g>
	<path class="st1" d="M1056.9,1272.2l-56.3-85.9l28.1-18.4l56.3,85.9L1056.9,1272.2z"/>
</g>
<g>
	<path class="st1" d="M1110.7,1235.1l-44-54.7l-14.1,12.5l-20.9-26l55.1-44.3l21,26l-15.3,11.1l44,54.7L1110.7,1235.1z"/>
</g>
<g>
	<path class="st1" d="M1087.1,1123.5l25.8-27.9l19.2,6.9c2.7,1,5.2,2.3,7.7,3.7l0.7-0.7c-1.7-2.3-3.2-4.7-4.3-7.4l-8.9-18l25.7-27.8
		l21.6,62.9l32.5,30l-22.5,24.3l-32.5-30L1087.1,1123.5z"/>
</g>
<g>
	<path class="st1" d="M708.7,1169.3c-62.2,0-122.5-12.2-179.3-36.2c-54.9-23.2-104.1-56.4-146.4-98.7
		c-42.3-42.3-75.5-91.6-98.7-146.4c-24-56.8-36.2-117.1-36.2-179.3c0-62.2,12.2-122.5,36.2-179.3c23.2-54.9,56.4-104.1,98.7-146.4
		c42.3-42.3,91.6-75.5,146.4-98.7c56.8-24,117.1-36.2,179.3-36.2c62.2,0,122.5,12.2,179.3,36.2c54.9,23.2,104.1,56.4,146.4,98.7
		c42.3,42.3,75.5,91.6,98.7,146.4c24,56.8,36.2,117.1,36.2,179.3c0,62.2-12.2,122.5-36.2,179.3c-23.2,54.9-56.4,104.1-98.7,146.4
		s-91.6,75.5-146.4,98.7C831.2,1157.1,770.8,1169.3,708.7,1169.3z M708.7,262.2c-60.3,0-118.7,11.8-173.8,35.1
		C481.7,319.8,434,352,393,393s-73.2,88.8-95.7,141.9c-23.3,55-35.1,113.5-35.1,173.8s11.8,118.7,35.1,173.8
		c22.5,53.2,54.7,100.9,95.7,141.9s88.8,73.2,141.9,95.7c55,23.3,113.5,35.1,173.8,35.1s118.7-11.8,173.8-35.1
		c53.2-22.5,100.9-54.7,141.9-95.7s73.2-88.8,95.7-141.9c23.3-55,35.1-113.5,35.1-173.8s-11.8-118.7-35.1-173.8
		c-22.5-53.2-54.7-100.9-95.7-141.9s-88.8-73.2-141.9-95.7C827.4,274,768.9,262.2,708.7,262.2z"/>
</g>
<g>
	<path class="st2" d="M436.9,493.9c-21.5-8.3-45.7,2.4-54,24c-8.3,21.5,2.4,45.7,24,54c21.5,8.3,45.7-2.4,54-24
		c3.2-8.2,3.7-17.2,1.4-25.6c62.6-26.3,191.4,2.5,320.5,77c158,91.2,256.5,216.2,220.1,279.3S809,918.8,651,827.6
		c-111-64-192.6-144.8-218.7-209c-12.5,3.2-25.7,2.8-38.1-1c25.7,78.1,114,172.3,237.5,243.5c176.3,101.7,357.3,118.1,404.4,36.5
		s-57.7-230.1-233.9-331.9C658.6,482.9,511.9,456.7,436.9,493.9z"/>
</g>
<g>
	<path class="st2" d="M758.8,365.9c-3.6-22.8-25-38.4-47.8-34.9c-22.8,3.6-38.4,25-34.9,47.8c3.6,22.8,25,38.4,47.8,34.9
		c8.7-1.4,16.7-5.4,23-11.6c54.1,41.1,93.5,167,93.5,316.1c0,182.4-59,330.2-131.8,330.2S576.8,900.6,576.8,718.2
		c0-128.1,29.1-239.2,71.7-293.9c-9-9.3-15.3-20.9-18.2-33.5c-54.8,61.3-92.2,184.9-92.2,327.4c0,203.5,76.3,368.5,170.5,368.5
		s170.5-165,170.5-368.5C879.1,552.4,828.5,412.2,758.8,365.9z"/>
</g>
<g>
	<path class="st2" d="M1030.6,580.8c18-14.5,20.8-40.8,6.3-58.8c-14.5-18-40.8-20.8-58.8-6.3c-18,14.5-20.8,40.8-6.3,58.8
		c5.5,6.8,13,11.8,21.5,14.1c-8.5,67.4-97.9,164.5-227,239c-157.9,91.2-315.5,114-351.9,51s62.1-188.1,220.1-279.3
		c111-64.1,221.7-94.4,290.4-84.9c3.5-12.4,10.4-23.7,19.9-32.5c-80.5-16.8-206.2,12.6-329.6,83.9
		c-176.3,101.8-281,250.4-233.9,331.9s228.1,65.1,404.4-36.6C929.2,778.2,1025.3,664.2,1030.6,580.8z"/>
</g>
<g>
	<path class="st1" d="M732.5,746.5c0-0.8,0.1-1.6,0.2-2.3c0.1-0.2,44.6-13.4,44.6-13.4s-45.9,3.8-46.5,3.5l-0.8-1.6
		c-0.7-1.4-0.8-2.1-0.3-2.6c0.2-0.2,24.2-36.7,24.2-36.7s-31.4,31.1-32,31.1c-0.4,0-0.7-0.1-1-0.3c-0.2-0.2-2.2-0.8-2.5-1
		c-0.1-0.1-5.3-45-5.3-45l-4.2,45l-1.4,0.5c-0.6,0.2-1.1,0.4-1.7,0.7c-0.4,0.3-33.7-31-33.7-31s26.1,37.9,25.8,38.1
		c-0.3,0.3-0.5,0.7-0.7,1.1l-0.5,1c0,0-19.4-1-19.7-1.2c-0.2-1-0.3-1.9-0.3-2.9c-0.1-2.4-0.3-4.8-0.8-7.1c-0.1-0.5-0.3-1.6-0.5-2.5
		s-0.5-2-0.6-2.5s-5.5-21.3-5.7-22.2s-1.2-5.7-1.3-7.3c-0.1-0.9-0.3-2.2-0.4-3c-0.3-2.1,0-4.2,0.9-6.1c1.4-3.1,1.5-5.7,0.1-11.1
		c-0.1-0.4-1.6-3.9-2.1-4.9c-0.7-1.4-1.4-2.7-2.2-4c-0.6-0.9-1.1-1.9-1.5-2.8c-0.4-2.3,0.9-4.5,3.2-5.2c1.4-0.5,2.7-1.1,3.9-1.9
		c0.1-0.2,0.3-0.3,0.5-0.3c0.4,0,2.6-2.3,3-3.1c1.1-2.2,1-3.8-0.1-6.5c-0.1-0.3-0.3-0.6-0.5-0.9c-0.3-0.2-0.2-1.4,0.1-1.8
		c0.4-1.2,0.4-2.6,0-3.8c-0.8-0.9-1.9-1.6-3.1-1.8c-0.4-0.1-1.1-0.2-1.5-0.4c-0.9-0.2-1.8-0.2-2.8-0.2c-1.8,0-2,0-2-0.4
		c0-0.2,0.1-0.5,0.3-0.7c0.2-0.1,0.8-0.8,1.5-1.4c4.4-4.3,6.9-8.1,8.1-12.3c0.3-2.2,0.4-4.4,0.1-6.6c-0.2-1-0.5-1.9-0.9-2.8
		c-1.2-2-2.6-3.9-4.3-5.5c-0.7-0.8-1.5-1.4-2.3-2c-0.2,0-0.3,0.1-0.1,0.3c0.4,0.9,0.6,1.9,0.5,3c-0.1,0.7-0.4,1.3-0.8,1.8
		c-0.4,0.8-2.1,2-4.2,3.1c-1.2,0.6-2.3,1.2-3.3,2c-0.1,0.1-3.8,3.3-4.8,4.3c-1,1.3-1.8,2.7-2.2,4.2c-0.5,1.5-0.6,1.8-0.6,4.4
		c-0.1,1.9,0.2,3.8,0.9,5.6c0.1,0.3,0.4,0.9,0.5,1.3c0.1,0.4,0.3,0.7,0.6,1c0.1,0.2,0.2,0.5,0.2,0.7c-0.1,0.3-0.3,0.4-2,0.5
		c-1.5,0-3,0.4-4.2,1.2c-1.3,0.8-3.7,3.2-4,4c-0.5,0.9-0.8,1.8-1,2.8c0,0.5-0.2,1-0.4,1.4c-0.8,1.6-1,3.6-0.5,5.3
		c0.7,1.4,2.3,2.6,5.1,3.8c0.8,0.5,1.4,1.2,1.9,2c0,0,0.5,0.8,1.1,1.7s1.2,1.8,1.3,2c0.8,1.3,0.9,1.7,0.7,2.7
		c-0.1,0.6-0.3,2.8-0.5,3.2c-0.9,2.3-0.9,12,0,13.8c1.3,2.7,1.5,3,2.2,3.5c0.4,0.2,0.7,0.5,1.1,0.8c0.4,0.3,0.8,4.5,0.6,5.5
		c-0.5,2.2-0.3,16.3,0.3,24.4c0.5,6.8,0.7,8.5,0.9,9.1c0.1,0.5,0.2,1.1,0.2,1.6c0,0.6,0.1,1.2,0.2,1.7c0.2,0.7,0.3,1.4,0.4,2.1
		c0.4,2.6,1,5.2,1.7,7.8c0.2,0.7-7.5-0.3-7.5-0.3s8.3,2.3,8.7,2.7c0.8,0.6,1.4,4.8,1.5,10.2c0.1,4.8-0.1,6.6-0.8,7.4
		c-1.6,2-2.8,4.2-3.5,6.6c-0.1,0.3-0.3,0.9-0.4,1.2c-0.9,3.3-1.2,6.8-1,10.2c0.1,1,0.2,2.2,0.2,2.8c0.1,1.7,0.4,3.3,0.8,4.9
		c0.1,0.5,0.3,1.2,0.3,1.5c0.1,0.4,0.2,0.8,0.4,1.2c0.1,0.3,0.2,0.7,0.3,1c0,0.7,0.4,1.4,1,1.8c1.1,0.7,1.9,1.7,2.4,2.9
		c0.4,1,0.5,2.1,0.5,3.2c0,2.1-0.2,2.9-1.1,3.7c-0.3,0.2-0.6,0.9-0.8,1.1c-0.4,0.3-0.4,2,0,2.2c0.3,0.1,0.6,0,0.8-0.2
		c0.7-0.4,1.2-0.4,2.1,0.2c1.1,0.7,1.9,1.8,2.4,3c1.1,1.9,1.3,4.3,0.6,6.4c-0.4,1.3-0.7,2.5-0.9,3.8c-0.1,0.6-0.3,1.4-0.4,1.7
		c-0.3,2.8-0.4,5.5-0.4,8.3h93.5l-0.1-2.3c-0.1-2.9-0.3-5.9-0.7-8.8c-0.2-0.6-0.4-1.8-0.6-2.6c-0.3-1.3-0.6-2.5-1.1-3.7
		c-0.6-1.5-1.4-3-2.2-4.4c-1.7-2.7-4.5-4.6-7.7-5.2c-1.3-0.1-2.2-0.5-2.2-1c0-0.1-1.6-3-2.4-4.3c-0.1-0.2-0.3-0.6-0.5-0.8
		s-0.4-0.7-0.6-1c-0.2-0.3-0.4-0.6-0.5-0.9c-0.1-0.2-0.5-0.9-0.9-1.6c-0.3-0.4-0.5-0.9-0.8-1.4c-0.3-0.5-0.6-0.9-1-1.3
		c-1.7-2.2-1.9-2.5-1.9-4.3c0-1.7,0.4-3.3,1.2-4.8c0.5-1.2,0.5-1.6,0-3.8c-0.2-0.7-0.4-1.9-0.5-2.6s-0.3-2-0.4-2.8
		c-0.3-1.7-0.2-2.2,0.4-2.2l35,15.1c0,0-32.7-23.2-33.5-23.8C732.2,748.5,732.5,748.8,732.5,746.5z M693,759.7
		c-0.7,1.5-1.7,2.9-2.8,4.2c-0.4,0.3-0.8,0.5-1.2,0.6c-0.5,0.1-0.7,0-1.1-0.5c-0.6-0.6-0.7-1-0.8-2.3c0-0.8,0-0.9,0.8-1.3
		c0.4-0.3,4-1.8,5-2.3c0.2-0.1,0.5-0.1,0.6,0.1C693.7,758.4,693.6,758.7,693,759.7z M694.2,745.2c-0.2,1.9-0.4,2.2-1.7,3.2
		c-0.6,0.5-5.9,4.3-6.1,4.3s-1-1.5-1-2c-0.2-0.9-0.4-1.7-0.8-2.5c-0.5-1.3-2.5-5.2-2.7-5.4s-0.6-0.8-1.1-1.5c-1.1-1.6-1-1.9,0.3-1.7
		c0.5,0.1,11.3,3,12,3.2c0.3,0.1,0.5,0.2,0.8,0.3C694.2,743,694.3,743.8,694.2,745.2z"/>
</g>
</svg>
